<?xml version="1.0" encoding="UTF-8"?>
<svg id="Layer_2" data-name="Layer 2" xmlns="http://www.w3.org/2000/svg" viewBox="0 0 588.89 206.47">
  <defs>
    <style>
      .cls-1 {
        fill: #231f20;
      }
    </style>
  </defs>
  <g id="Layer_1-2" data-name="Layer 1">
    <path class="cls-1" d="M469.79,63.66h8.8v71.4h-8.8V63.66Z"/>
    <path class="cls-1" d="M490.18,63.66h11.4l23.6,59.6h.2v-59.6h8.8v71.4h-12.1l-22.9-57.8h-.2v57.8h-8.8V63.66Z"/>
    <path class="cls-1" d="M579.69,83.46c-.4-7.5-3.2-14-11.9-14-12.2,0-13.8,13.4-13.8,29.9s1.6,29.9,13.8,29.9,13.1-14.6,13.1-24.1h-14.1v-7.2h22.1v37.1h-6.6v-9.7h-.2c-1.9,6.1-7.6,11.1-15.4,11.1-18.6,0-21.9-17.9-21.9-37.1,0-18,3.3-37.1,23-37.1s21,17.5,21.1,21.2h-9.2Z"/>
    <path class="cls-1" d="M26.67,134.94h8.8l10.9,58.4h.2l10.1-58.4h10.6l10.1,58.4h.2l10.9-58.4h8.8l-14.7,71.4h-10.7l-9.8-57.8h-.2l-10.3,57.8h-10.7l-14.2-71.4Z"/>
    <path class="cls-1" d="M116.07,134.94h11.8l19.2,71.4h-9.2l-5.1-19.6h-22.8l-5.3,19.6h-9.2l20.6-71.4ZM111.77,179.54h19.2l-9.1-34.5h-.2l-9.9,34.5Z"/>
    <path class="cls-1" d="M329.09,63.66h-9.2l-14,61.3h-.2l-14-61.3h-9.2l17.4,71.4-17.29,71.28h9.2l5.3-19.6h17.66l5.1,19.6h9.2l-17.97-71.28,18-71.4ZM312.96,179.54h-14.06l6.75-34.5h.2l7.1,34.5Z"/>
    <polygon class="cls-1" points="418.79 127.26 389.79 127.26 389.79 63.66 380.99 63.66 380.99 134.94 380.9 134.94 380.9 206.34 418.73 206.34 418.73 198.54 389.7 198.54 389.7 172.94 418.73 172.94 418.73 165.14 389.7 165.14 389.7 142.74 418.73 142.74 418.73 135.06 418.79 135.06 418.79 127.26"/>
    <g>
      <path class="cls-1" d="M271.19,115.46l5.1,19.6h9.2l-19.2-71.4h-11.8l-20.6,71.4v71.4h8.8v-30.2h10.9c12.1,0,20.6-7.4,20.6-20.7,0-20.5-15.9-20.5-22.1-20.5h-9l5.3-19.6h22.8ZM260.09,73.76h.2l9.1,34.5h-19.2l9.9-34.5ZM252.59,142.26c8.7,0,12.4,5.1,12.4,12.9,0,9.5-5.4,13.9-11.8,13.9h-10.5v-26.8h9.9Z"/>
      <path class="cls-1" d="M229.69,123.86l-.6-12.2c-.4-6.1-3.9-11.2-10.1-11.9v-.2c8.3-2,11-10.2,11-18,0-11.3-7.1-17.9-18.3-17.9h-23.1v134.89h-24.62v-63.48h.02v-63.6h18v-7.8h-44.39v-.08h-29.9v-26.77h27.1v-5.4h-27.1V5.4h29V0h-35.4v71.4h35.99v.05h17.9v63.48h-.02v71.4h71.22v-7.8h-29v-63.48h0v-31.8h11.9c4.5,0,9.9.6,10.6,10.4l.6,11.1c.2,3.5.9,8.8,2.4,10.3h11c-2.1-1.3-3.8-3.3-4.2-11.2ZM206.09,96.06h-8.7v-25.2h10.5c8.2,0,12.9,4.4,12.9,11.4,0,13.8-9.5,13.8-14.7,13.8Z"/>
      <polygon class="cls-1" points="0 5.4 18.4 5.4 18.4 71.4 24.8 71.4 24.8 5.4 43.2 5.4 43.2 0 0 0 0 5.4"/>
      <polygon class="cls-1" points="83.7 30.4 55.8 30.4 55.8 0 49.4 0 49.4 71.4 55.8 71.4 55.8 35.8 83.7 35.8 83.7 71.4 90.1 71.4 90.1 0 83.7 0 83.7 30.4"/>
    </g>
    <path class="cls-1" d="M372.79,133.37v-6.11h-29.3v-25.6h26.5v-7.8h-26.5v-22.4h28.1v-7.8h-36.9v71.28h-.09v71.4h8.8v-30.2h8.82c11.72,0,20.03-6.96,20.55-19.47l.05.06v-23.35h-.03ZM351.82,168.94h-8.42v-26.8h7.82c8.7,0,12.4,5.1,12.4,12.9,0,9.5-5.4,13.9-11.8,13.9Z"/>
    <path class="cls-1" d="M434.19,127.26v-63.6h-8.8v71.28h-.16v71.4h8.8v-31.8h4.96c4.5,0,9.9.6,10.6,10.4l.6,11.1c.2,3.5.9,8.8,2.4,10.3h10.6c-2.1-1.3-3.4-3.3-3.8-11.2l-.6-12.2c-.4-6.1-.4-11.2-6.6-11.9v-.2c7.66-1.84,10.54-8.97,10.94-16.18l.06.08v-27.48h-29ZM439.29,167.34h-5.26v-25.2h7.06c8.2,0,12.9,4.4,12.9,11.4,0,13.8-9.5,13.8-14.7,13.8Z"/>
  </g>
</svg>