<svg xmlns="http://www.w3.org/2000/svg" version="1.1" xmlns:xlink="http://www.w3.org/1999/xlink" width="148.51" height="148.51"><svg id="SvgjsSvg1023" data-name="Layer 2" xmlns="http://www.w3.org/2000/svg" viewBox="0 0 148.51 148.51">
  <defs>
    <style>
      .cls-1 {
        fill: #231f20;
      }

      .cls-2 {
        fill: #fff;
      }
    </style>
  </defs>
  <g id="SvgjsG1022" data-name="Layer 1">
    <rect class="cls-2" width="148.51" height="148.51"></rect>
    <g>
      <path class="cls-1" d="M114.87,65.09h2.04v16.54h-2.04v-16.54Z"></path>
      <path class="cls-1" d="M119.6,65.09h2.64l5.47,13.81h.05v-13.81h2.04v16.54h-2.8l-5.31-13.39h-.05v13.39h-2.04v-16.54Z"></path>
      <path class="cls-1" d="M140.33,69.67c-.09-1.74-.74-3.24-2.76-3.24-2.83,0-3.2,3.1-3.2,6.93s.37,6.93,3.2,6.93,3.03-3.38,3.03-5.58h-3.27v-1.67h5.12v8.6h-1.53v-2.25h-.05c-.44,1.41-1.76,2.57-3.57,2.57-4.31,0-5.07-4.15-5.07-8.6,0-4.17.76-8.6,5.33-8.6s4.87,4.05,4.89,4.91h-2.13Z"></path>
      <path class="cls-1" d="M12.22,81.6h2.04l2.53,13.53h.05l2.34-13.53h2.46l2.34,13.53h.05l2.53-13.53h2.04l-3.41,16.54h-2.48l-2.27-13.39h-.05l-2.39,13.39h-2.48l-3.29-16.54Z"></path>
      <path class="cls-1" d="M32.93,81.6h2.73l4.45,16.54h-2.13l-1.18-4.54h-5.28l-1.23,4.54h-2.13l4.77-16.54ZM31.94,91.93h4.45l-2.11-7.99h-.05l-2.29,7.99Z"></path>
      <path class="cls-1" d="M82.28,65.09h-2.13l-3.24,14.2h-.05l-3.24-14.2h-2.13l4.03,16.54-4.01,16.51h2.13l1.23-4.54h4.09l1.18,4.54h2.13l-4.16-16.51,4.17-16.54ZM78.54,91.93h-3.26l1.56-7.99h.05l1.65,7.99Z"></path>
      <polygon class="cls-1" points="103.06 79.82 96.34 79.82 96.34 65.09 94.3 65.09 94.3 81.6 94.28 81.6 94.28 98.14 103.05 98.14 103.05 96.33 96.32 96.33 96.32 90.4 103.05 90.4 103.05 88.6 96.32 88.6 96.32 83.41 103.05 83.41 103.05 81.63 103.06 81.63 103.06 79.82"></polygon>
      <g>
        <path class="cls-1" d="M68.87,77.09l1.18,4.54h2.13l-4.45-16.54h-2.73l-4.77,16.54v16.54h2.04v-7h2.53c2.8,0,4.77-1.71,4.77-4.8,0-4.75-3.68-4.75-5.12-4.75h-2.08l1.23-4.54h5.28ZM66.3,67.43h.05l2.11,7.99h-4.45l2.29-7.99ZM64.56,83.3c2.02,0,2.87,1.18,2.87,2.99,0,2.2-1.25,3.22-2.73,3.22h-2.43v-6.21h2.29Z"></path>
        <path class="cls-1" d="M59.25,79.03l-.14-2.83c-.09-1.41-.9-2.59-2.34-2.76v-.05c1.92-.46,2.55-2.36,2.55-4.17,0-2.62-1.64-4.15-4.24-4.15h-5.35v31.25h-5.7v-14.71h0v-14.73h4.17v-1.81h-10.28v-.02h-6.93v-6.2h6.28v-1.25h-6.28v-6.02h6.72v-1.25h-8.2v16.54h8.34s4.15.01,4.15.01v14.71h0v16.54h16.5v-1.81h-6.72v-14.71h0v-7.37h2.76c1.04,0,2.29.14,2.46,2.41l.14,2.57c.05.81.21,2.04.56,2.39h2.55c-.49-.3-.88-.76-.97-2.59ZM53.79,72.59h-2.02v-5.84h2.43c1.9,0,2.99,1.02,2.99,2.64,0,3.2-2.2,3.2-3.41,3.2Z"></path>
        <polygon class="cls-1" points="6.05 51.59 10.31 51.59 10.31 66.88 11.79 66.88 11.79 51.59 16.05 51.59 16.05 50.34 6.05 50.34 6.05 51.59"></polygon>
        <polygon class="cls-1" points="25.43 57.38 18.97 57.38 18.97 50.34 17.49 50.34 17.49 66.88 18.97 66.88 18.97 58.63 25.43 58.63 25.43 66.88 26.92 66.88 26.92 50.34 25.43 50.34 25.43 57.38"></polygon>
      </g>
      <path class="cls-1" d="M92.4,81.24v-1.42h-6.79v-5.93h6.14v-1.81h-6.14v-5.19h6.51v-1.81h-8.55v16.51h-.02v16.54h2.04v-7h2.04c2.71,0,4.64-1.61,4.76-4.51h.01s0-5.4,0-5.4h0ZM87.55,89.48h-1.95v-6.21h1.81c2.02,0,2.87,1.18,2.87,2.99,0,2.2-1.25,3.22-2.73,3.22Z"></path>
      <path class="cls-1" d="M106.63,79.82v-14.73h-2.04v16.51h-.04v16.54h2.04v-7.37h1.15c1.04,0,2.29.14,2.46,2.41l.14,2.57c.05.81.21,2.04.56,2.39h2.46c-.49-.3-.79-.76-.88-2.59l-.14-2.83c-.09-1.41-.09-2.59-1.53-2.76v-.05c1.77-.43,2.44-2.08,2.54-3.75v.02s.01-4.56.01-4.56v-1.81h-6.72ZM107.81,89.11h-1.22v-5.84h1.63c1.9,0,2.99,1.02,2.99,2.64,0,3.2-2.2,3.2-3.41,3.2Z"></path>
    </g>
  </g>
</svg><style>@media (prefers-color-scheme: light) { :root { filter: none; } }
@media (prefers-color-scheme: dark) { :root { filter: invert(100%); } }
</style></svg>